<?xml version="1.0" encoding="UTF-8"?> <svg xmlns="http://www.w3.org/2000/svg" xmlns:xlink="http://www.w3.org/1999/xlink" width="1440px" height="551px" viewBox="0 0 1440 551" version="1.1"><title>maintenance-management</title><g id="maintenance-management" stroke="none" stroke-width="1" fill="none" fill-rule="evenodd"><rect id="Rectangle_61" fill="#EDF8FC" fill-rule="nonzero" x="0" y="-0.48" width="1440" height="551"></rect><path d="M1220.35,190 C1178.21,190 1143.94,228.6 1143.94,276 L1143.94,278.37 L1143.94,278.37 L1143.94,369.56 C1143.37201,428.374757 1095.5325,475.754493 1036.715,475.754493 C977.8975,475.754493 930.057993,428.374757 929.49,369.56 L929.49,306.73 L929.66,306.73 L929.66,118 C929.66,116.14 929.59,114.3 929.49,112.47 L929.49,112 L929.49,112 C926.73,67.37 893.62,32 853.29,32 C811.16,32 776.89,70.59 776.89,118 L776.89,306.73 L777.3,306.73 L777.3,425.63 C777.3,459.96 747.12,487.88 710.03,487.88 C672.94,487.88 642.72,460 642.72,425.63 L642.72,270.26 L642.66,270.26 L642.66,200.16 C642.66,152.72 608.39,114.16 566.25,114.16 C524.11,114.16 489.85,152.75 489.85,200.16 L489.85,388.88 L489.85,388.88 L489.85,410.18 C489.85,445.98 464.16,475.11 432.58,475.11 C401,475.11 375.34,446 375.34,410.18 L375.34,248.39 L375.22,248.39 L375.22,154.67 C375.220001,113.280781 353.139115,75.0355652 317.295,54.3409555 C281.450886,33.6463459 237.289114,33.6463459 201.445,54.3409555 C165.600885,75.0355652 143.52,113.280781 143.52,154.67 L143.52,412 L151.77,412 L151.77,154.67 C152.339006,95.6460904 200.348348,48.0973403 259.375,48.0973403 C318.401652,48.0973403 366.410994,95.6460904 366.98,154.67 L366.98,248.39 L366.98,248.39 L366.98,410.17 C366.98,410.75 366.98,411.31 366.98,411.88 L366.98,412 L366.98,412 C367.82,451.93 396.93,484.13 432.61,484.13 C468.82,484.13 498.28,450.98 498.28,410.22 L498.28,388.92 L498.98,388.92 L498.98,200.15 C498.98,158.15 529.16,123.94 566.25,123.94 C603.34,123.94 633.52,158.13 633.52,200.15 L633.52,388.87 L633.57,388.87 L633.57,425.63 C633.57,464.8 667.84,496.63 709.98,496.63 C752.12,496.63 786.39,464.77 786.39,425.63 L786.39,270.26 L786,270.26 L786,118 C786,76 816.17,41.79 853.26,41.79 C889.94,41.79 919.84,75.24 920.5,116.63 L920.5,369.63 C920.5,433.816534 972.533466,485.85 1036.72,485.85 C1100.90653,485.85 1152.94,433.816534 1152.94,369.63 L1152.94,285.93 L1153.1,285.93 L1153.1,276.07 C1153.1,234.07 1183.27,199.86 1220.36,199.86 C1257.45,199.86 1287.63,234.05 1287.63,276.07 L1287.63,464.78 L1296.77,464.78 L1296.77,276.06 C1296.75,228.63 1262.48,190 1220.35,190 Z" id="Path_1275" fill="#12AFD7" fill-rule="nonzero"></path><g id="Group_263" transform="translate(274.000000, 18.000000)" fill-rule="nonzero"><g id="Group_261"><rect id="Rectangle_145" fill="#0E1C4C" x="0.69" y="8.04" width="95.19" height="119.71" rx="7.64"></rect><rect id="Rectangle_146" fill="#FFFFFF" x="7.1" y="14.64" width="82.38" height="106.51"></rect><path d="M77,5.5 C77.1471521,5.11363681 77.2217345,4.70343347 77.22,4.29 C77.22,2.02 74.98,0.18 72.22,0.18 L24.34,0.18 C21.58,0.18 19.34,2.02 19.34,4.29 C19.3408249,4.71061331 19.4187811,5.12750915 19.57,5.52 C18.0856778,5.78647173 16.9657172,7.01719769 16.84,8.52 L16.84,15.9 L79.74,15.9 L79.74,8.49 C79.6296439,6.978919 78.4957276,5.74154318 77,5.5 Z M62.49,6.5 C62.1208736,6.80124926 61.6563278,6.96082605 61.18,6.95 L35.38,6.95 C34.4468073,7.03159144 33.6199184,6.35140861 33.52,5.42 C33.5285441,4.99760818 33.7314912,4.60278378 34.07,4.35 C34.4391264,4.04875074 34.9036722,3.88917395 35.38,3.9 L61.18,3.9 C62.0827617,3.83387181 62.8806693,4.48271973 63,5.38 C62.9984406,5.80455272 62.7987065,6.20402082 62.46,6.46 L62.49,6.5 Z" id="Path_1276" fill="#A9C9E0"></path><g id="Group_235" transform="translate(16.000000, 24.000000)" fill="#00A1CF"><g id="Group_233" transform="translate(0.000000, 3.000000)"><path d="M7.23,13.42 C3.6953776,13.42 0.83,10.5546224 0.83,7.02 C0.83,3.4853776 3.6953776,0.62 7.23,0.62 C10.7646224,0.62 13.63,3.4853776 13.63,7.02 C13.6244936,10.5523391 10.7623391,13.4144936 7.23,13.42 L7.23,13.42 Z M7.23,2.05 C4.46857625,2.05 2.23,4.28857625 2.23,7.05 C2.23,9.81142375 4.46857625,12.05 7.23,12.05 C9.99142375,12.05 12.23,9.81142375 12.23,7.05 C12.23,4.28857625 9.99142375,2.05 7.23,2.05 Z" id="Path_1277"></path></g><g id="Group_234" transform="translate(4.000000, 0.000000)"><path d="M3.41,12.34 C3.2229739,12.3348164 3.04463868,12.2599156 2.91,12.13 L0.25,9.46 C0.115622761,9.32833773 0.0398979486,9.14812813 0.0398979486,8.96 C0.0398979486,8.77187187 0.115622761,8.59166227 0.25,8.46 C0.528967506,8.19076447 0.971032494,8.19076447 1.25,8.46 L3.41,10.62 L13.41,0.62 C13.6889675,0.350764472 14.1310325,0.350764472 14.41,0.62 C14.5443772,0.751662267 14.6201021,0.931871866 14.6201021,1.12 C14.6201021,1.30812813 14.5443772,1.48833773 14.41,1.62 L3.91,12.13 C3.77482892,12.2591053 3.59682026,12.3338689 3.41,12.34 L3.41,12.34 Z" id="Path_1278"></path></g></g><g id="Group_239" transform="translate(39.000000, 26.000000)" fill="#00A1CF"><g id="Group_236"><path d="M39.8,2.81 L1.22,2.81 C0.710202159,2.81559927 0.290933307,2.40971134 0.28,1.9 L0.28,1.9 C0.290933307,1.39028866 0.710202159,0.984400726 1.22,0.99 L39.8,0.99 C40.0447934,0.984618618 40.2814269,1.07811238 40.4564354,1.24935724 C40.6314439,1.42060209 40.73,1.65514747 40.73,1.9 L40.73,1.9 C40.73,2.14485253 40.6314439,2.37939791 40.4564354,2.55064276 C40.2814269,2.72188762 40.0447934,2.81538138 39.8,2.81 L39.8,2.81 Z" id="Path_1279"></path></g><g id="Group_237" transform="translate(0.000000, 6.000000)"><path d="M39.8,2.08 L1.22,2.08 C0.710202159,2.08559927 0.290933307,1.67971134 0.28,1.17 L0.28,1.17 C0.290933307,0.660288657 0.710202159,0.254400726 1.22,0.26 L39.8,0.26 C40.0447934,0.254618618 40.2814269,0.348112382 40.4564354,0.519357235 C40.6314439,0.690602088 40.73,0.925147467 40.73,1.17 L40.73,1.17 C40.73,1.41485253 40.6314439,1.64939791 40.4564354,1.82064276 C40.2814269,1.99188762 40.0447934,2.08538138 39.8,2.08 L39.8,2.08 Z" id="Path_1280"></path></g><g id="Group_238" transform="translate(0.000000, 11.000000)"><path d="M39.8,2.36 L1.22,2.36 C0.870262009,2.39661211 0.530246418,2.23065888 0.343942053,1.93241772 C0.157637688,1.63417655 0.157637688,1.25582345 0.343942053,0.957582281 C0.530246418,0.659341116 0.870262009,0.49338789 1.22,0.53 L39.8,0.53 C40.149738,0.49338789 40.4897536,0.659341116 40.6760579,0.957582281 C40.8623623,1.25582345 40.8623623,1.63417655 40.6760579,1.93241772 C40.4897536,2.23065888 40.149738,2.39661211 39.8,2.36 Z" id="Path_1281"></path></g></g><g id="Group_242" transform="translate(16.000000, 47.000000)" fill="#00A1CF"><g id="Group_240" transform="translate(0.000000, 4.000000)"><path d="M7.23,12.9 C3.6953776,12.9 0.83,10.0346224 0.83,6.5 C0.83,2.9653776 3.6953776,0.1 7.23,0.1 C10.7646224,0.1 13.63,2.9653776 13.63,6.5 C13.6190199,10.0300643 10.7600643,12.8890199 7.23,12.9 Z M7.23,1.52 C4.46857625,1.52 2.23,3.75857625 2.23,6.52 C2.23,9.28142375 4.46857625,11.52 7.23,11.52 C9.99142375,11.52 12.23,9.28142375 12.23,6.52 C12.23,5.19391755 11.7032158,3.92214799 10.7655339,2.98446609 C9.82785201,2.0467842 8.55608245,1.52 7.23,1.52 L7.23,1.52 Z" id="Path_1282"></path></g><g id="Group_241" transform="translate(4.000000, 0.000000)"><path d="M3.41,12.8100719 C3.2229739,12.8048164 3.04463868,12.7299156 2.91,12.6 L0.25,9.94 C0.0147543252,9.65790735 0.0335035689,9.24295865 0.293231111,8.98323111 C0.552958653,8.72350357 0.967907347,8.70475433 1.25,8.94 L3.41,11.1 L13.41,1.1 C13.6920927,0.864754325 14.1070413,0.883503569 14.3667689,1.14323111 C14.6264964,1.40295865 14.6452457,1.81790735 14.41,2.1 L14.41,2.1 L3.91,12.61 C3.77667109,12.7406734 3.59666814,12.8126746 3.41,12.8100719 L3.41,12.8100719 Z" id="Path_1283"></path></g></g><g id="Group_246" transform="translate(39.000000, 50.000000)" fill="#00A1CF"><g id="Group_243"><path d="M39.8,2.28 L1.22,2.28 C0.710202159,2.28559927 0.290933307,1.87971134 0.28,1.37 L0.28,1.37 C0.290933307,0.860288657 0.710202159,0.454400726 1.22,0.46 L39.8,0.46 C40.1251117,0.459999961 40.4255273,0.633444973 40.5880832,0.914999969 C40.7506391,1.19655496 40.7506391,1.54344504 40.5880832,1.82500003 C40.4255273,2.10655503 40.1251117,2.28000004 39.8,2.28 L39.8,2.28 Z" id="Path_1284"></path></g><g id="Group_244" transform="translate(0.000000, 5.000000)"><path d="M39.8,2.56 L1.22,2.56 C0.710202159,2.56559927 0.290933307,2.15971134 0.28,1.65 L0.28,1.65 C0.290881613,1.13867934 0.708563575,0.729884225 1.22,0.729999975 L39.8,0.729999975 C40.3097448,0.729970531 40.7245189,1.14028469 40.73,1.65 L40.73,1.65 C40.73,1.89485253 40.6314439,2.12939791 40.4564354,2.30064276 C40.2814269,2.47188762 40.0447934,2.56538138 39.8,2.56 Z" id="Path_1285"></path></g><g id="Group_245" transform="translate(0.000000, 11.000000)"><path d="M39.8,1.83 L1.22,1.83 C0.710202159,1.83559927 0.290933307,1.42971134 0.28,0.92 L0.28,0.92 C0.290933307,0.410288657 0.710202159,0.00440072593 1.22,0.01 L39.8,0.01 C40.3025791,0.01 40.71,0.417420878 40.71,0.92 C40.71,1.42257912 40.3025791,1.83 39.8,1.83 Z" id="Path_1286"></path></g></g><g id="Group_249" transform="translate(16.000000, 71.000000)" fill="#00A1CF"><g id="Group_247" transform="translate(0.000000, 3.000000)"><path d="M7.23,13.35 C3.6953776,13.35 0.83,10.4846224 0.83,6.95 C0.83,3.4153776 3.6953776,0.55 7.23,0.55 C10.7646224,0.55 13.63,3.4153776 13.63,6.95 C13.6244936,10.4823391 10.7623391,13.3444936 7.23,13.35 L7.23,13.35 Z M7.23,1.98 C4.46857625,1.98 2.23,4.21857625 2.23,6.98 C2.23,9.74142375 4.46857625,11.98 7.23,11.98 C9.99142375,11.98 12.23,9.74142375 12.23,6.98 C12.2189855,4.22638995 9.98363208,1.99997797 7.23,2 L7.23,1.98 Z" id="Path_1287"></path></g><g id="Group_248" transform="translate(4.000000, 0.000000)"><path d="M3.41,12.26 C3.22188674,12.2600269 3.04167928,12.1843397 2.91,12.05 L0.25,9.39 C-0.0245555647,9.11320224 -0.0245555647,8.66679776 0.25,8.39 L0.25,8.39 C0.528967506,8.12076447 0.971032494,8.12076447 1.25,8.39 L3.41,10.56 L13.41,0.56 C13.6920927,0.324754325 14.1070413,0.343503569 14.3667689,0.603231111 C14.6264964,0.862958653 14.6452457,1.27790735 14.41,1.56 L14.41,1.56 L3.93,12.04 C3.79753848,12.1863547 3.6072786,12.2668493 3.41,12.26 Z" id="Path_1288"></path></g></g><g id="Group_253" transform="translate(39.000000, 73.000000)" fill="#00A1CF"><g id="Group_250"><path d="M39.8,2.74 L1.22,2.74 C0.710202159,2.74559927 0.290933307,2.33971134 0.28,1.83 C0.290881613,1.31867934 0.708563575,0.909884225 1.22,0.909999975 L39.8,0.909999975 C40.3097448,0.909970531 40.7245189,1.32028469 40.73,1.83 C40.73,2.07485253 40.6314439,2.30939791 40.4564354,2.48064276 C40.2814269,2.65188762 40.0447934,2.74538138 39.8,2.74 Z" id="Path_1289"></path></g><g id="Group_251" transform="translate(0.000000, 6.000000)"><path d="M39.8,2 L1.22,2 C0.710202159,2.00559927 0.290933307,1.59971134 0.28,1.09 L0.28,1.09 C0.290933307,0.580288657 0.710202159,0.174400726 1.22,0.18 L39.8,0.18 C40.1251117,0.179999961 40.4255273,0.353444973 40.5880832,0.634999969 C40.7506391,0.916554964 40.7506391,1.26344504 40.5880832,1.54500003 C40.4255273,1.82655503 40.1251117,2.00000004 39.8,2 L39.8,2 Z" id="Path_1290"></path></g><g id="Group_252" transform="translate(0.000000, 11.000000)"><path d="M39.8,2.28 L1.22,2.28 C0.710202159,2.28559927 0.290933307,1.87971134 0.28,1.37 L0.28,1.37 C0.290933307,0.860288657 0.710202159,0.454400726 1.22,0.46 L39.8,0.46 C40.3025791,0.46 40.71,0.867420878 40.71,1.37 C40.71,1.87257912 40.3025791,2.28 39.8,2.28 L39.8,2.28 Z" id="Path_1291"></path></g></g><g id="Group_256" transform="translate(16.000000, 94.000000)" fill="#00A1CF"><g id="Group_254" transform="translate(0.000000, 3.000000)"><path d="M7.23,13.78 C3.6953776,13.78 0.83,10.9146224 0.83,7.38 C0.83,3.8453776 3.6953776,0.98 7.23,0.98 C10.7646224,0.98 13.63,3.8453776 13.63,7.38 C13.6244936,10.9123391 10.7623391,13.7744936 7.23,13.78 Z M7.23,2.41 C4.46857625,2.41 2.23,4.64857625 2.23,7.41 C2.23,10.1714237 4.46857625,12.41 7.23,12.41 C9.99142375,12.41 12.23,10.1714237 12.23,7.41 C12.23,4.64857625 9.99142375,2.41 7.23,2.41 Z" id="Path_1292"></path></g><g id="Group_255" transform="translate(4.000000, 0.000000)"><path d="M3.41,12.7000719 C3.22188674,12.7000719 3.04167928,12.6243397 2.91,12.49 L0.25,9.83 C0.0147543252,9.54790735 0.0335035689,9.13295865 0.293231111,8.87323111 C0.552958653,8.61350357 0.967907347,8.59475433 1.25,8.83 L3.41,10.99 L13.41,0.99 C13.5416623,0.855622761 13.7218719,0.779897949 13.91,0.779897949 C14.0981281,0.779897949 14.2783377,0.855622761 14.41,0.99 C14.6845556,1.26679776 14.6845556,1.71320224 14.41,1.99 L14.41,1.99 L3.91,12.5 C3.77667109,12.6306734 3.59666814,12.7026746 3.41,12.7000719 Z" id="Path_1293"></path></g></g><g id="Group_260" transform="translate(39.000000, 97.000000)" fill="#00A1CF"><g id="Group_257"><path d="M39.8,2.18 L1.22,2.18 C0.870262009,2.21661211 0.530246418,2.05065888 0.343942053,1.75241772 C0.157637688,1.45417655 0.157637688,1.07582345 0.343942053,0.777582281 C0.530246418,0.479341116 0.870262009,0.31338789 1.22,0.35 L39.8,0.35 C40.149738,0.31338789 40.4897536,0.479341116 40.6760579,0.777582281 C40.8623623,1.07582345 40.8623623,1.45417655 40.6760579,1.75241772 C40.4897536,2.05065888 40.149738,2.21661211 39.8,2.18 L39.8,2.18 Z" id="Path_1294"></path></g><g id="Group_258" transform="translate(0.000000, 5.000000)"><path d="M39.8,2.45 L1.22,2.45 C0.717420878,2.45 0.31,2.04257912 0.31,1.54 C0.31,1.03742088 0.717420878,0.63 1.22,0.63 L39.8,0.63 C40.1251117,0.63 40.4255274,0.803444953 40.5880832,1.08499996 C40.7506391,1.36655496 40.7506391,1.71344504 40.5880832,1.99500004 C40.4255274,2.27655505 40.1251117,2.45 39.8,2.45 Z" id="Path_1295"></path></g><g id="Group_259" transform="translate(0.000000, 10.000000)"><path d="M39.8,2.72 L1.22,2.72 C0.717420878,2.72 0.31,2.31257912 0.31,1.81 C0.31,1.30742088 0.717420878,0.9 1.22,0.9 L39.8,0.9 C40.1251117,0.9 40.4255274,1.07344495 40.5880832,1.35499996 C40.7506391,1.63655496 40.7506391,1.98344504 40.5880832,2.26500004 C40.4255274,2.54655505 40.1251117,2.72 39.8,2.72 L39.8,2.72 Z" id="Path_1296"></path></g></g></g><g id="Group_262" transform="translate(58.000000, 24.000000)"><rect id="Rectangle_147" fill="#00A1CF" transform="translate(41.234342, 40.238658) rotate(-49.870000) translate(-41.234342, -40.238658) " x="-6.66565774" y="35.8036578" width="95.8" height="8.87"></rect><polygon id="Path_1297" fill="#ACD6E3" points="0.26 87 13.75 79.69 7 74"></polygon><polygon id="Path_1298" fill="#0E1C4C" points="2.38 82.93 4.33 84.83 0.26 87.03"></polygon></g></g><g id="Group_272" transform="translate(69.000000, 295.000000)" fill-rule="nonzero"><path d="M12.7497858,62.24 C12.7384875,66.5791543 13.191061,70.9070974 14.1,75.15 C14.7420228,78.2321476 15.6281496,81.2583544 16.75,84.2 C16.88,84.55 17.02,84.9 17.15,85.2 C17.21,85.32 17.25,85.44 17.3,85.56 C17.44,85.91 17.58,86.25 17.73,86.56 C18.9594966,89.4816207 20.4138627,92.3034251 22.08,95 C38.3836202,121.236977 71.5263906,131.451136 99.7706675,118.943226 C128.014944,106.435316 142.726233,75.0291023 134.255709,45.3232574 C125.785186,15.6174125 96.7223549,-3.30675571 66.1289143,0.962715251 C35.5354737,5.23218621 12.7640758,31.3900859 12.7497858,62.28 L12.7497858,62.24 Z" id="Path_1299" fill="#00A1CF"></path><circle id="Ellipse_31" fill="#FFFFFF" cx="74.65" cy="62.24" r="51.49"></circle><circle id="Ellipse_32" fill="#CDE4F0" cx="74.65" cy="62.24" r="41.11"></circle><circle id="Ellipse_33" fill="#00A1CF" cx="74.65" cy="62.24" r="12.51"></circle><circle id="Ellipse_34" fill="#0E1C4C" cx="74.66" cy="62.24" r="3.78"></circle><g id="Group_267" transform="translate(14.000000, 60.000000)" fill="#1A1718"><g id="Group_264" transform="translate(3.000000, 19.000000)"><path d="M0.3,6.59 C0.44,6.94 0.59,7.28 0.73,7.59 C1.96433531,10.5015492 3.42201577,13.3132677 5.09,16 L11.88,15.13 C12.0701017,15.1086316 12.2282847,14.974176 12.28,14.79 L16.36,1.3 L16.36,1.19 C16.4004716,1.06669321 16.3892883,0.932253186 16.3289997,0.817328018 C16.2687111,0.702402851 16.1644555,0.616787652 16.04,0.58 C15.9388041,0.550276407 15.8311959,0.550276407 15.73,0.58 L0.3,6.59 Z" id="Path_1300"></path></g><g id="Group_265" transform="translate(0.000000, 10.000000)"><path d="M0.1,5.15 C0.742022766,8.23214762 1.62814961,11.2583544 2.75,14.2 C2.88,14.55 3.02,14.9 3.15,15.2 L18.44,8.74 C18.682693,8.63476304 18.7944991,8.35301162 18.69,8.11 C18.6487196,8.00882189 18.574803,7.92434585 18.48,7.87 L18.37,7.81 L6,1 C5.84245304,0.895380585 5.63754696,0.895380585 5.48,1 L0.1,5.15 Z" id="Path_1301"></path></g><g id="Group_266" transform="translate(2.000000, 0.000000)"><path d="M0.75,24.2 C0.88,24.55 1.02,24.9 1.15,25.2 L1.3,25.56 C1.44,25.91 1.58,26.25 1.73,26.56 L17.36,20.21 L58.93,3.31 C59.3691315,3.10023654 59.6543274,2.66277129 59.6690679,2.17633539 C59.6838084,1.68989949 59.4256245,1.23596818 59,1 C58.6666016,0.819006026 58.2686952,0.800584433 57.92,0.95 L16.34,17.86 L0.75,24.2 Z" id="Path_1302"></path></g></g><g id="Group_271" transform="translate(0.000000, 27.000000)"><g id="Group_268" transform="translate(4.000000, 0.000000)" fill="#0E1C4C"><path d="M29.4,17 L25.29,3.39 C25.2316731,3.21015534 25.0768921,3.07859149 24.89,3.05 L1.34,0.05 C1.21251768,0.0330521421 1.08356629,0.0679694584 0.982052494,0.146924636 C0.880538695,0.225879813 0.814953878,0.342268434 0.8,0.47 C0.785614703,0.607822653 0.829071067,0.745434472 0.92,0.85 L8.55,9.62 C8.59975001,9.68273935 8.66533916,9.7310682 8.74,9.76 L28.74,17.58 C28.8593288,17.6253759 28.9918179,17.6213457 29.108168,17.5688005 C29.224518,17.5162553 29.3151424,17.4195246 29.36,17.3 C29.4060467,17.2071458 29.4201094,17.101675 29.4,17 Z" id="Path_1303"></path></g><g id="Group_269" transform="translate(0.000000, 9.000000)" fill="#0E1C4C"><path d="M32.48,10.26 L20,17.14 C19.842453,17.2446194 19.637547,17.2446194 19.48,17.14 L0.48,2.86 C0.375198443,2.78410045 0.305480437,2.66910245 0.286653656,2.54108034 C0.267826875,2.41305824 0.301486271,2.28285768 0.38,2.18 C0.464508395,2.06997441 0.591696544,2.00092942 0.73,1.99 L12.32,0.99 C12.3953723,0.970076623 12.4746277,0.970076623 12.55,0.99 L32.35,9.36 C32.5937936,9.46955165 32.7083207,9.7514644 32.61,10 C32.5939632,10.097821 32.5486347,10.1884779 32.48,10.26 L32.48,10.26 Z" id="Path_1304"></path></g><g id="Group_270" transform="translate(10.000000, 8.000000)" fill="#A9C9E0"><path d="M65,28.18 C65.2851819,28.0416506 65.5094454,27.8031482 65.63,27.51 C65.8920938,26.8418264 65.5722669,26.0866797 64.91,25.81 L2.1,0.27 C1.43175922,0.00208319885 0.67254416,0.323633104 0.4,0.99 C0.143574186,1.65808726 0.461738917,2.40930954 1.12,2.69 L64,28.23 C64.32574,28.3533924 64.6881931,28.3352698 65,28.18 L65,28.18 Z" id="Path_1305"></path></g></g></g><g id="Group_290" transform="translate(371.000000, 156.000000)" fill-rule="nonzero"><path d="M173.27,211.38 C172.930556,209.843403 172.41725,208.350453 171.74,206.93 C172.471324,206.558804 172.786915,205.682162 172.46,204.93 C170.129897,198.672584 168.908283,192.056918 168.85,185.38 C168.838059,184.781623 168.526204,184.229303 168.02,183.91 C168.32,179.16 168.66,174.41 168.96,169.65 C169.11,167.22 165.32,167.23 165.17,169.65 C164.66,177.72 163.94,185.81 163.69,193.89 C163.47,200.81 164.57,208.45 170.1,213.24 C170.720147,213.810997 171.640208,213.9107 172.368276,213.485803 C173.096344,213.060905 173.462102,212.210803 173.27,211.39 L173.27,211.38 Z" id="Path_1306" fill="#DB9E76"></path><path d="M247.34,247.92 C247.407961,246.340087 246.189303,245.000902 244.61,244.92 L244.23,244.92 C226.97,245.806667 209.7,246.68 192.42,247.54 C190.974289,247.558211 189.711014,248.520899 189.31,249.91 C188.71,253.08 188.08,256.25 187.45,259.41 C186.996378,259.172146 186.558779,258.90491 186.14,258.61 C185.737205,258.285595 185.359466,257.931255 185.01,257.55 C184.343649,256.901197 183.328749,256.770768 182.52,257.23 C181.510221,257.863351 181.018839,259.071667 181.3,260.23 C181.32112,260.313055 181.351301,260.393537 181.39,260.47 C180.162353,260.667207 179.162253,261.561828 178.83,262.76 C178.410746,264.523632 178.448608,266.365092 178.94,268.11 C179.32,269.6 179.94,271.01 180.27,272.51 C180.27,272.64 180.32,272.76 180.34,272.89 L180.34,273 C180.34,273.43 180.34,273.85 180.34,274.29 C180.34,274.4 180.34,274.48 180.34,274.54 L180.25,275.09 C180.17,275.56 180.1,276.04 180.03,276.51 C179.784938,278.345188 179.784938,280.204812 180.03,282.04 C180.140653,283.243805 180.816029,284.323665 181.85,284.95 C179.59,293.74 172.85,302.43 169.54,310.95 C165.98,320.07 161.91,328.95 157.95,337.95 C162.022252,338.209159 165.9512,339.552183 169.33,341.84 C169.69,342.08 170.04,342.34 170.33,342.61 C172.97,338.36 178.98,336.25 183.63,337.53 C186.284599,338.221523 188.585023,339.879969 190.08,342.18 C190.37,340.9 190.67,339.62 190.95,338.34 C192.403333,331.9 193.8,325.446667 195.14,318.98 C195.84,315.61 196.54,312.25 197.21,308.89 C197.7,306.39 197.61,302.58 199.9,301.09 C204.42,298.14 209.04,295.46 213.34,292.16 C217.749821,288.78932 221.935352,285.134914 225.87,281.22 C234.602101,272.463359 241.964767,262.440829 247.71,251.49 C248.358134,250.342346 248.209719,248.910342 247.34,247.92 Z" id="Path_1307" fill="#75A2BD"></path><path d="M177.76,223.1 C174.48,216.68 170.62,210.48 168.02,203.86 C165.672676,197.773658 164.518359,191.292512 164.62,184.77 C164.74,172.36 168.51,160.21 171.56,148.12 C174.47,136.48 175.4,123.87 171.75,112.12 C170.912153,109.659238 169.748473,107.321788 168.29,105.17 C166.770603,102.760866 164.952872,100.553381 162.88,98.6 C161.27,97.13 159.26,95.54 156.88,95.23 C154.797826,95.0157255 152.802558,96.1211044 151.88,98 C151.079873,99.4382178 150.512834,100.9942 150.2,102.61 C149.82,104.33 149.86,106.16 149.62,107.91 C149.38,109.66 149.07,111.41 148.84,113.16 C146.398098,131.939521 141.153078,150.24653 133.28,167.47 C128.28,178.35 116.38,205.22 115.98,205.89 C114.750456,209.953918 113.959286,214.137732 113.62,218.37 C113.412365,222.034256 113.429063,225.707783 113.67,229.37 C115.04,239.69 116.41,250.01 117.18,260.37 C118.5,278.66 119.38,297.07 110.87,314.37 C110.1,315.94 109.3,317.52 108.47,319.08 C112.974794,318.064989 117.617497,320.088835 119.94,324.08 C120.39,324.82 120.8,325.59 121.17,326.36 C133.93,327.07 144.47,337.66 153.17,346.36 C154.561084,347.701748 155.563166,349.39492 156.07,351.26 C162.69,339.26 169.45,327.32 175.34,315.12 C178.84,307.87 183.34,300.89 185.44,293.06 L185.5,292.86 C187.450948,285.176164 188.428606,277.277622 188.41,269.35 C188.594401,253.305132 184.943058,237.448361 177.76,223.1 Z" id="Path_1308" fill="#8ABFDF"></path><rect id="Rectangle_148" fill="#6DCDF6" transform="translate(142.832550, 350.429100) rotate(-70.655671) translate(-142.832550, -350.429100) " x="110.260387" y="308.288024" width="65.144326" height="84.2821529"></rect><g id="Group_289"><g id="Group_286" transform="translate(165.000000, 0.000000)"><g id="Group_273"><rect id="Rectangle_149" fill="#2A2B2E" x="0.13" y="0.63" width="367.28" height="254.7" rx="18.7"></rect><rect id="Rectangle_150" fill="#FFFFFF" x="16.77" y="21.18" width="334.01" height="213.6" rx="18.7"></rect></g><g id="Group_276" transform="translate(142.000000, 63.000000)"><g id="Group_274" fill="#9AD9EA"><rect id="Rectangle_151" x="0.04" y="48.29" width="25.55" height="82.79"></rect><rect id="Rectangle_152" x="34.16" y="29.33" width="25.55" height="101.75"></rect><rect id="Rectangle_153" x="68.27" y="0.36" width="25.55" height="130.73"></rect><rect id="Rectangle_154" x="103.48" y="19.68" width="25.55" height="111.4"></rect><rect id="Rectangle_155" x="139.2" y="58.64" width="25.55" height="72.44"></rect></g><g id="Group_275" transform="translate(5.000000, 33.000000)" fill="#00A1CF"><path d="M148.87,65.15 L148.68,65.15 C147.696683,65.0868488 146.807068,64.5448568 146.3,63.7 L113.63,9.4 L81.08,55.6 L80.84,55.89 C78.3208191,58.6382728 74.1035575,58.9660392 71.19,56.64 C71.0828258,56.5510416 70.9825393,56.4540979 70.89,56.35 L41.89,25.51 L4.89,58.91 C3.64733054,59.8705804 1.87411162,59.7100717 0.824127341,58.5419642 C-0.225856942,57.3738567 -0.197128387,55.5936199 0.89,54.46 L38.74,20.3 L38.87,20.19 C40.6830882,18.7208848 43.2769118,18.7208848 45.09,20.19 C45.1970092,20.2755288 45.2973031,20.3691365 45.39,20.47 L75.11,52.05 C75.5135998,52.2873636 76.0232227,52.243223 76.38,51.94 L111.38,2.2 C111.963945,1.3713227 112.926899,0.893607033 113.94,0.93 C114.9486,0.97037883 115.86928,1.51527102 116.39,2.38 L149.2,56.9 L169.73,30.9 C170.365117,29.9805898 171.458602,29.4903704 172.567554,29.6278991 C173.676506,29.7654277 174.617116,30.5079091 175.008401,31.5546105 C175.399687,32.6013119 175.176793,33.7787429 174.43,34.61 L151.22,64 C150.653885,64.7227054 149.788029,65.1464224 148.87,65.15 L148.87,65.15 Z" id="Path_1309"></path></g></g><g id="Group_277" transform="translate(43.000000, 68.000000)" fill="#9CDAEA"><path d="M29.9,26.7 L17.71,0.13 C8.07316129,4.39640803 1.47788284,13.5186787 0.447128901,24.0071697 C-0.583625037,34.4956608 4.10965143,44.7273115 12.7315878,50.7880963 C21.3535241,56.848881 32.569903,57.8009126 42.09,53.28 C43.7959447,52.5066674 45.4206293,51.5653553 46.94,50.47 L29.9,26.7 Z" id="Path_1310"></path></g><g id="Group_279" transform="translate(60.000000, 65.000000)" fill="#00A1CF"><path d="M12.9,29.7 L29.9,53.47 C43.021605,44.058645 46.0301518,25.7924679 36.62,12.67 C28.5494358,1.17314631 13.3790603,-2.8525945 0.67,3.13 L12.9,29.7 Z" id="Path_1311"></path></g><g id="Group_285" transform="translate(43.000000, 137.000000)"><g id="Group_281" transform="translate(24.000000, 0.000000)" fill="#9CDAEA"><path d="M5.89,29.44 L0.31,0.74 C10.5653088,-1.25354199 21.1051468,2.37549133 27.9592592,10.2600782 C34.8133716,18.1446652 36.9404556,29.0869493 33.5392592,38.9650782 C30.1380628,48.8432072 21.7253088,56.156458 11.47,58.15 L11.47,58.15 C9.63174034,58.5093464 7.76305322,58.6900001 5.89,58.6900001 L5.89,29.44 Z" id="Path_1312"></path></g><g id="Group_283" fill="#121D4C"><path d="M29.89,29.44 L29.89,58.68 C13.7411939,58.68 0.65,45.5888061 0.65,29.44 L0.65,29.44 C0.52270687,15.3978009 10.5013432,3.29353793 24.31,0.74 L29.89,29.44 Z" id="Path_1313"></path></g></g></g><rect id="Rectangle_156" fill="#2A2B2E" transform="translate(100.078959, 476.295513) rotate(-70.890000) translate(-100.078959, -476.295513) " x="-63.9110408" y="427.880513" width="327.98" height="96.83"></rect><g id="Group_288" transform="translate(414.000000, 145.000000)"><g id="Group_287"><path d="M51.54,170.83 C51.5608143,170.384964 51.4822454,169.940879 51.31,169.53 C43.2,148.94 35.57,128.05 26.12,108.03 C26.2397767,107.302899 26.0100527,106.561854 25.5,106.03 C20.5,100.48 13.43,94.77 5.5,98.03 C1.92,99.52 -0.69,103.18 0.31,107.13 C1.31,111.08 4.92,113.91 7.45,116.8 C12.8797175,123.012283 17.8021815,129.650253 22.17,136.65 C26.3,143.3 29.6,150.3 33.17,157.25 C36.74,164.2 41.17,171.19 48.38,174.75 C49.5532639,175.468268 51.0829809,175.148299 51.87,174.02 C52.4819765,173.001674 52.3474743,171.701486 51.54,170.83 Z" id="Path_1314" fill="#75A2BD"></path><path d="M170.06,215.58 C163.98,207.06 155.75,200.43 149.12,192.37 C142.32,184.1 139.19,174.49 138.12,163.93 C137.01,153.05 137.7,142.07 136.79,131.17 C135.79,119.38 133.61,107.09 128.99,96.12 C126.83,90.97 123.41,86.12 118.24,83.7 C113.41,81.43 107.39,81.37 103.87,88.2 C103.81,88.02 103.37,84.12 103.28,83.93 C101.65,81.03 99.95,78 97.45,75.74 C94.4931033,73.2170656 90.7989693,71.7190644 86.92,71.47 C83.39,71.1 80.35,70.59 75.84,72.24 C72.94,73.29 72.74,77.64 72.01,79.24 C69.12,73.53 63.51,66.15 57.21,65.07 C54.6674412,64.4885364 52.0076764,64.7014572 49.59,65.68 C45.85,66.9 44.98,73.28 43.97,74.88 C39.12,63.98 34.35,48.26 30.88,36.88 C28.79,29.97 27.22,22.88 24.43,16.17 C22.05,10.46 17.69,2.59 11.11,1.1 C7.19534489,0.304758637 3.23322219,2.23050597 1.44,5.8 C-0.73,9.8 0.02,14.37 1.07,18.64 C1.14465698,18.9451825 1.26251334,19.2381398 1.42,19.51 C5.3,38.59 13.8,56.33 17.99,75.32 C20.22,85.37 21.47,95.41 25.13,105.1 C26.89,109.73 28.95,114.25 30.59,118.95 C32.0505581,123.219207 33.2199076,127.582552 34.09,132.01 C35.91,140.77 37.09,149.66 39.35,158.31 C41.527654,167.201166 45.6233267,175.508556 51.35,182.65 C57.87,190.52 65.78,197.36 73.13,204.47 C80.31,211.47 87.13,219.07 96.96,222.08 C107.85,225.43 120.1,225.83 131.38,225.08 C143.13,224.28 154.76,221.14 166.6,221.86 C167.60487,221.951339 168.58638,221.520985 169.2,220.72 C169.436808,220.61823 169.65615,220.479875 169.85,220.31 C171.186653,219.04912 171.279654,216.954374 170.06,215.58 Z" id="Path_1315" fill="#8ABFDF"></path></g><rect id="Rectangle_157" fill="#6DCDF6" transform="translate(128.469829, 230.555816) rotate(-24.520000) translate(-128.469829, -230.555816) " x="91.3448292" y="197.850816" width="74.25" height="65.41"></rect><rect id="Rectangle_158" fill="#2A2B2E" transform="translate(195.006052, 374.275538) rotate(-24.520000) translate(-195.006052, -374.275538) " x="152.516052" y="188.795538" width="84.98" height="370.96"></rect></g></g></g><g id="Group_296" transform="translate(604.000000, 429.000000)" fill-rule="nonzero"><circle id="Ellipse_35" fill="#00A1CF" cx="57.5" cy="48.53" r="40.76"></circle><g id="Group_292" fill="#FFFFFF" opacity="0.3"><g id="Group_291"><rect id="Rectangle_159" transform="translate(27.555097, 44.701708) rotate(-62.300000) translate(-27.555097, -44.701708) " x="-19.7599029" y="39.4267076" width="94.63" height="10.55"></rect><rect id="Rectangle_160" transform="translate(84.404723, 64.088043) rotate(-62.300000) translate(-84.404723, -64.088043) " x="37.0897228" y="62.518043" width="94.63" height="3.14"></rect><rect id="Rectangle_161" transform="translate(79.867325, 61.710228) rotate(-62.300000) translate(-79.867325, -61.710228) " x="32.5523246" y="60.9252279" width="94.63" height="1.57"></rect></g></g><circle id="Ellipse_37" fill="#FFFFFF" cx="57.5" cy="48.53" r="35.11"></circle><g id="Group_293" transform="translate(28.000000, 19.000000)" fill="#CDE4F0"><polygon id="Path_1316" points="3.25 16.08 3.72 15.21 7 17 6.54 17.87"></polygon><polygon id="Path_1317" points="12.09 5.72 12.9 5.16 15 8.16 14.19 8.72"></polygon><polygon id="Path_1318" points="24.84 0.4 25.84 0.26 26.36 3.93 25.36 4.07"></polygon><polygon id="Path_1319" points="38.67 1.5 39.6 1.82 38.39 5.32 37.46 5"></polygon><polygon id="Path_1320" points="50.47 8.78 51.15 9.5 48.47 12.05 47.79 11.34"></polygon><polygon id="Path_1321" points="57.63 20.65 57.91 21.59 54.37 22.65 54.08 21.7"></polygon><polygon id="Path_1322" points="58.57 34.49 58.39 35.49 54.75 34.81 54.94 33.81"></polygon><polygon id="Path_1323" points="53.1 47.23 52.5 48.01 49.57 45.74 50.17 44.96"></polygon><polygon id="Path_1324" points="42.4 56.05 41.51 56.47 40 53.11 40.89 52.7"></polygon><polygon id="Path_1325" points="28.85 59 27.85 59 28 55.3 29 55.3"></polygon><polygon id="Path_1326" points="15.46 55.46 14.6 54.98 16.42 51.76 17.27 52.24"></polygon><polygon id="Path_1327" points="5.16 46.18 4.62 45.36 7.71 43.36 8.25 44.18"></polygon><polygon id="Path_1328" points="0.24 33.2 0.14 32.2 3.82 31.8 3.92 32.8"></polygon></g><g id="Group_295" transform="translate(53.000000, 30.000000)"><g id="Group_294" transform="translate(3.000000, 0.000000)" fill="#0E1C4C"><polygon id="Path_1329" points="13.42 34.49 0.24 20.2 0.24 0.9 2.1 0.9 2.1 19.47 14.79 33.23"></polygon></g><circle id="Ellipse_38" fill="#00A1CF" cx="4.31" cy="18.96" r="4.27"></circle></g></g><g id="Group_312" transform="translate(998.000000, 416.000000)" fill-rule="nonzero"><polygon id="Path_1330" fill="#CDE4F0" points="65.73 90.36 76.14 79.94 65.73 79.94"></polygon><g id="Group_309"><polygon id="Path_1332" fill="#B6DAE8" points="4.1 3.31 80.16 3.31 80.16 93.66 4.1 93.66"></polygon><polygon id="Path_1333" fill="#CDE4F0" points="65.73 90.36 0.09 90.36 0.09 0 76.14 0 76.14 79.94"></polygon><circle id="Ellipse_39" fill="#FFFFFF" cx="16" cy="59.4" r="5.83"></circle><circle id="Ellipse_40" fill="#FFFFFF" cx="16" cy="17.73" r="5.83"></circle><circle id="Ellipse_41" fill="#FFFFFF" cx="16" cy="38.56" r="5.83"></circle><g id="Group_300" transform="translate(28.000000, 11.000000)" fill="#FFFFFF"><g id="Group_297"><path d="M38.87,2.46 L1.05,2.46 C0.810511368,2.46538313 0.578964163,2.3739974 0.407705849,2.20650301 C0.236447534,2.03900861 0.139999972,1.80954912 0.139999972,1.57 L0.139999972,1.57 C0.139999972,1.07294373 0.542943725,0.67 1.04,0.67 L38.87,0.67 C39.1094886,0.664616866 39.3410358,0.756002596 39.5122942,0.923496991 C39.6835525,1.09099139 39.78,1.32045088 39.78,1.56 L39.78,1.56 C39.78,2.05705627 39.3770563,2.46 38.88,2.46 L38.87,2.46 Z" id="Path_1338"></path></g><g id="Group_298" transform="translate(0.000000, 5.000000)"><path d="M38.87,2.63 L1.05,2.63 C0.811300806,2.63266695 0.581320208,2.54039416 0.410658873,2.37348362 C0.239997539,2.20657309 0.142637481,1.97869952 0.14,1.74 L0.14,1.74 C0.14,1.24294373 0.542943725,0.84 1.04,0.84 L38.87,0.84 C39.1094886,0.834616866 39.3410358,0.926002596 39.5122942,1.09349699 C39.6835525,1.26099139 39.78,1.49045088 39.78,1.73 L39.78,1.73 C39.78,2.22705627 39.3770563,2.63 38.88,2.63 L38.87,2.63 Z" id="Path_1339"></path></g><g id="Group_299" transform="translate(0.000000, 11.000000)"><path d="M38.87,1.8 L1.05,1.8 C0.811300806,1.80266695 0.581320208,1.71039416 0.410658873,1.54348362 C0.239997539,1.37657309 0.142637481,1.14869952 0.14,0.91 L0.14,0.91 C0.14,0.412943725 0.542943725,0.01 1.04,0.01 L38.87,0.01 C39.1085439,0.00186305296 39.3401608,0.0909723504 39.5117394,0.256894516 C39.683318,0.422816682 39.7800001,0.651317443 39.7800001,0.89 L39.7800001,0.89 C39.7800001,1.1304376 39.6838222,1.36088473 39.5128704,1.52995789 C39.3419187,1.69903106 39.1104228,1.79267153 38.87,1.79 L38.87,1.8 Z" id="Path_1340"></path></g></g><g id="Group_304" transform="translate(28.000000, 32.000000)" fill="#FFFFFF"><g id="Group_301"><path d="M38.87,2.29 L1.05,2.29 C0.810511368,2.29538313 0.578964163,2.2039974 0.407705849,2.03650301 C0.236447534,1.86900861 0.139999972,1.63954912 0.139999972,1.4 L0.139999972,1.4 C0.139999972,0.902943725 0.542943725,0.5 1.04,0.5 L38.87,0.5 C39.1104228,0.497328471 39.3419187,0.590968939 39.5128704,0.760042105 C39.6838222,0.929115271 39.78,1.1595624 39.78,1.4 L39.78,1.4 C39.78,1.89705627 39.3770563,2.3 38.88,2.3 L38.87,2.29 Z" id="Path_1341"></path></g><g id="Group_302" transform="translate(0.000000, 5.000000)"><path d="M38.87,2.46 L1.05,2.46 C0.810511368,2.46538313 0.578964163,2.3739974 0.407705849,2.20650301 C0.236447534,2.03900861 0.139999972,1.80954912 0.139999972,1.57 L0.139999972,1.57 C0.139999972,1.07294373 0.542943725,0.67 1.04,0.67 L38.87,0.67 C39.1094886,0.664616866 39.3410358,0.756002596 39.5122942,0.923496991 C39.6835525,1.09099139 39.78,1.32045088 39.78,1.56 L39.78,1.56 C39.78,2.05705627 39.3770563,2.46 38.88,2.46 L38.87,2.46 Z" id="Path_1342"></path></g><g id="Group_303" transform="translate(0.000000, 10.000000)"><path d="M38.87,2.63 L1.05,2.63 C0.810511368,2.63538313 0.578964163,2.5439974 0.407705849,2.37650301 C0.236447534,2.20900861 0.139999972,1.97954912 0.139999972,1.74 L0.139999972,1.74 C0.139999972,1.24294373 0.542943725,0.84 1.04,0.84 L38.87,0.84 C39.1094886,0.834616866 39.3410358,0.926002596 39.5122942,1.09349699 C39.6835525,1.26099139 39.78,1.49045088 39.78,1.73 L39.78,1.73 C39.78,2.22705627 39.3770563,2.63 38.88,2.63 L38.87,2.63 Z" id="Path_1343"></path></g></g><g id="Group_308" transform="translate(28.000000, 53.000000)" fill="#FFFFFF"><g id="Group_305"><path d="M38.87,2.13 L1.05,2.13 C0.812235872,2.13535871 0.582217286,2.04533415 0.411255526,1.88000849 C0.240293767,1.71468283 0.142611806,1.48781017 0.14,1.25 L0.14,1.25 C0.14,0.752943725 0.542943725,0.35 1.04,0.35 L38.87,0.35 C39.1094886,0.344616866 39.3410358,0.436002596 39.5122942,0.603496991 C39.6835525,0.770991387 39.78,1.00045088 39.78,1.24 L39.78,1.24 C39.78,1.73705627 39.3770563,2.14 38.88,2.14 L38.87,2.13 Z" id="Path_1344"></path></g><g id="Group_306" transform="translate(0.000000, 5.000000)"><path d="M38.87,2.3 L1.05,2.3 C0.810511368,2.30538313 0.578964163,2.2139974 0.407705849,2.04650301 C0.236447534,1.87900861 0.139999972,1.64954912 0.139999972,1.41 L0.139999972,1.41 C0.139999972,0.912943725 0.542943725,0.51 1.04,0.51 L38.87,0.51 C39.1077641,0.504641287 39.3377827,0.594665852 39.5087445,0.75999151 C39.6797062,0.925317168 39.7773882,1.15218983 39.78,1.39 L39.78,1.39 C39.78,1.6304376 39.6838222,1.86088473 39.5128704,2.02995789 C39.3419187,2.19903106 39.1104228,2.29267153 38.87,2.29 L38.87,2.3 Z" id="Path_1345"></path></g><g id="Group_307" transform="translate(0.000000, 10.000000)"><path d="M38.87,2.47 L1.05,2.47 C0.810511368,2.47538313 0.578964163,2.3839974 0.407705849,2.21650301 C0.236447534,2.04900861 0.139999972,1.81954912 0.139999972,1.58 L0.139999972,1.58 C0.139999972,1.08294373 0.542943725,0.68 1.04,0.68 L38.87,0.68 C39.1077641,0.674641287 39.3377827,0.764665852 39.5087445,0.92999151 C39.6797062,1.09531717 39.7773882,1.32218983 39.78,1.56 L39.78,1.56 C39.78,2.05705627 39.3770563,2.46 38.88,2.46 L38.87,2.47 Z" id="Path_1346"></path></g></g></g><g id="Group_310" transform="translate(25.000000, 46.000000)"><polygon id="Path_1347" fill="#CDE4F0" points="0.19 20 68.4 4.74 78.83 51.36 10.62 66.62"></polygon><polygon id="Path_1348" fill="#B6DAE8" points="0.15 22.28 66.43 0.09 81.59 45.4 15.3 67.58"></polygon><polygon id="Path_1349" fill="#CDE4F0" points="4.33 21.9 71.42 2.43 84.73 48.31 17.64 67.78"></polygon><polygon id="Path_1350" fill="#E6F6FE" points="71.46 2.42 45.46 38.47 4.25 21.91"></polygon></g><g id="Group_311" transform="translate(36.000000, 55.000000)" fill="#00A2CF"><path d="M11.46,22.31 L7.34,8.53 C6.83,8.69 6.34,8.88 5.82,9.01 L9.82,22.13 C10.17,23.32 9.68,23.94 9.19,24.06 C8.7,24.18 7.85,23.5 7.65,22.84 L2.55,5.92 C2.37929811,5.34985102 2.4403858,4.73538072 2.72,4.21 C2.99889946,3.68274714 3.47823748,3.2899062 4.05,3.12 L5.63,2.65 C5.83648211,2.58211111 6.05265007,2.54833487 6.27,2.55 C7.26186381,2.54850601 8.13661114,3.19948077 8.42,4.15 L9.16,6.6 C9.68,6.48 10.16,6.28 10.68,6.12 L9.94,3.69 C9.65035564,2.71709784 8.98444279,1.90000477 8.09,1.42 C7.19415192,0.939371416 6.1448612,0.831567576 5.17,1.12 L3.59,1.6 C1.57012457,2.21609124 0.423506171,4.34425069 1.02,6.37 L6.12,23.3 C6.41335916,24.2714714 7.0831027,25.0852458 7.98,25.56 C8.62296837,25.8789465 9.36361029,25.9397722 10.05,25.73 C11.2712076,25.0683031 11.8600278,23.6401009 11.46,22.31 L11.46,22.31 Z" id="Path_1351"></path></g></g><path d="M732.72,121.34 L730.11,118.86 C731.115531,117.0321 731.792465,115.041912 732.11,112.98 L735.17,112.91 C735.405194,112.904792 735.628511,112.80563 735.790096,112.634651 C735.95168,112.463672 736.038078,112.235113 736.03,112 L735.86,105.07 C735.854792,104.834806 735.75563,104.611489 735.584651,104.449904 C735.413672,104.28832 735.185113,104.201922 734.95,104.21 L731.35,104.3 C730.911969,103.015694 730.324612,101.78728 729.6,100.64 L732.18,97.93 C732.346718,97.7647499 732.440504,97.5397395 732.440504,97.305 C732.440504,97.0702605 732.346718,96.8452501 732.18,96.68 L727.18,91.9 C726.833446,91.5581607 726.276554,91.5581607 725.93,91.9 L725.93,91.9 L723.36,94.6 C721.854086,93.7406362 720.230075,93.1072044 718.54,92.72 L718.43,88.42 C718.424756,88.1865896 718.326973,87.9648299 718.158177,87.8035358 C717.989381,87.6422418 717.763408,87.554635 717.53,87.5597673 L710.6,87.73 C710.114697,87.7461857 709.72973,88.1444276 709.73,88.63 L709.84,92.9 C708.155675,93.3624475 706.54849,94.0700132 705.07,95 L702.42,92.48 C702.073446,92.1381607 701.516554,92.1381607 701.17,92.48 L701.17,92.48 L696.39,97.48 C696.048161,97.8265542 696.048161,98.3834458 696.39,98.73 L699.03,101.23 C698.162749,102.754541 697.525852,104.399016 697.14,106.11 L692.91,106.22 C692.67659,106.225244 692.45483,106.323027 692.293536,106.491823 C692.132242,106.660619 692.044635,106.886592 692.049767,107.12 L692.22,114.05 C692.236317,114.537644 692.642212,114.921237 693.13,114.91 L693.13,114.91 L697.36,114.81 C697.831042,116.499421 698.54877,118.110098 699.49,119.59 L696.55,122.68 C696.208161,123.026554 696.208161,123.583446 696.55,123.93 L701.55,128.71 C701.896554,129.051839 702.453446,129.051839 702.8,128.71 L702.8,128.71 L705.8,125.6 C707.139606,126.352807 708.571687,126.927656 710.06,127.31 L710.17,131.65 C710.175244,131.88341 710.273027,132.10517 710.441823,132.266464 C710.610619,132.427758 710.836592,132.515365 711.07,132.510233 L711.07,132.510233 L718,132.33 C718.23341,132.324756 718.45517,132.226973 718.616464,132.058177 C718.777758,131.889381 718.865365,131.663408 718.86,131.43 L718.86,131.43 L718.76,127.36 C720.644904,126.902402 722.44206,126.138948 724.08,125.1 L726.68,127.57 C726.84525,127.736718 727.07026,127.830504 727.305,127.830504 C727.53974,127.830504 727.76475,127.736718 727.93,127.57 L732.71,122.57 C733.046896,122.230786 733.051336,121.684647 732.72,121.34 L732.72,121.34 Z M708.72,116.26 C705.340845,113.032012 705.214543,107.677118 708.437753,104.293405 C711.660964,100.909692 717.015674,100.775824 720.403938,103.99425 C723.792202,107.212676 723.933636,112.567192 720.72,115.96 L720.72,115.96 C719.172666,117.594817 717.037616,118.545583 714.787349,118.601886 C712.537082,118.65819 710.357156,117.815389 708.73,116.26 L708.72,116.26 Z" id="Path_1352" fill="#00A1CF" fill-rule="nonzero"></path><path d="M446.23,373.23 L445.18,376.18 C443.373566,376.016965 441.552536,376.172666 439.8,376.64 L438.65,374.24 C438.46265,373.876329 438.026162,373.719193 437.65,373.88 L432.21,376.48 C431.846329,376.66735 431.689193,377.103838 431.85,377.48 L433.2,380.3 C432.336881,381.103905 431.571594,382.006809 430.92,382.99 L427.85,381.9 C427.655237,381.826504 427.439014,381.834997 427.250616,381.923544 C427.062218,382.012091 426.917699,382.173147 426.85,382.37 L426.85,382.37 L424.85,388.06 C424.776504,388.254763 424.784997,388.470986 424.873544,388.659384 C424.962091,388.847782 425.123147,388.992301 425.32,389.06 L428.37,390.13 C428.226058,391.633173 428.303551,393.149335 428.6,394.63 L425.22,396.25 C424.852308,396.4338 424.693833,396.874011 424.86,397.25 L427.46,402.69 C427.64735,403.053671 428.083838,403.210807 428.46,403.05 L431.8,401.45 C432.770791,402.609218 433.906181,403.619951 435.17,404.45 L434.11,407.45 C434.036504,407.644763 434.044997,407.860986 434.133544,408.049384 C434.222091,408.237782 434.383147,408.382301 434.58,408.45 L434.58,408.45 L440.26,410.45 C440.453267,410.526898 440.669607,410.521222 440.858576,410.434296 C441.047546,410.34737 441.19263,410.186791 441.26,409.99 L442.31,406.99 C443.829692,407.138892 445.363069,407.061381 446.86,406.76 L448.45,410.07 C448.626384,410.445697 449.071556,410.610411 449.45,410.44 L454.89,407.84 C455.253671,407.65265 455.410807,407.216162 455.25,406.84 L453.66,403.52 C454.824556,402.547056 455.835903,401.404234 456.66,400.13 L460.16,401.37 C460.354763,401.443496 460.570986,401.435003 460.759384,401.346456 C460.947782,401.257909 461.092301,401.096853 461.16,400.9 L461.16,400.9 L463.16,395.21 C463.233496,395.015237 463.225003,394.799014 463.136456,394.610616 C463.047909,394.422218 462.886853,394.277699 462.69,394.21 L459.21,393 C459.332089,391.66576 459.281673,390.321348 459.06,389 L462.46,387.37 C462.827692,387.1862 462.986167,386.745989 462.82,386.37 L460.22,380.93 C460.0362,380.562308 459.595989,380.403833 459.22,380.57 L456,382.11 C454.96422,380.780446 453.721751,379.62576 452.32,378.69 L453.32,375.76 C453.396898,375.566733 453.391222,375.350393 453.304296,375.161424 C453.21737,374.972454 453.056791,374.82737 452.86,374.76 L447.17,372.76 C446.781379,372.639871 446.367069,372.847026 446.23,373.23 L446.23,373.23 Z M450.73,394.07 C449.372109,397.904073 445.16803,399.916664 441.33,398.57 L441.33,398.57 C439.487607,397.922174 437.978228,396.568658 437.134215,394.807485 C436.290202,393.046312 436.180765,391.021896 436.83,389.18 L436.83,389.18 C438.187891,385.345927 442.39197,383.333336 446.23,384.68 L446.23,384.68 C450.064073,386.037891 452.076664,390.24197 450.73,394.08 L450.73,394.07 Z" id="Path_1353" fill="#A9C9E0" fill-rule="nonzero"></path><path d="M437.61,429.67 L435.78,428.96 C435.923859,427.828823 435.866304,426.68111 435.61,425.57 L437.14,424.91 C437.382693,424.804763 437.494499,424.523012 437.39,424.28 L435.88,420.81 C435.829723,420.693381 435.734394,420.602072 435.615719,420.556862 C435.497044,420.511653 435.365125,420.516392 435.25,420.57 L433.46,421.35 C432.972357,420.792011 432.422064,420.29205 431.82,419.86 L432.57,417.96 C432.665566,417.714254 432.545013,417.43743 432.3,417.34 L428.78,416 C428.531658,415.91129 428.25765,416.035036 428.16,416.28 L427.42,418.16 C426.484845,418.025022 425.535155,418.025022 424.6,418.16 L423.67,416.01 C423.556778,415.77007 423.275874,415.660342 423.03,415.76 L419.57,417.27 C419.331442,417.379204 419.221231,417.656936 419.32,417.9 L420.25,420.03 C419.490314,420.596662 418.816662,421.270314 418.25,422.03 L416.4,421.3 C416.151658,421.21129 415.87765,421.335036 415.78,421.58 L415.78,421.58 L414.4,425.09 C414.351259,425.207829 414.352485,425.340404 414.403396,425.457311 C414.454307,425.574219 414.550534,425.665423 414.67,425.71 L414.67,425.71 L416.51,426.44 C416.381538,427.387009 416.398399,428.34808 416.56,429.29 L414.45,430.21 C414.331593,430.258355 414.238006,430.352877 414.190831,430.471758 C414.143656,430.59064 414.146967,430.723613 414.2,430.84 L415.7,434.3 C415.809384,434.544001 416.094189,434.655253 416.34,434.55 L416.34,434.55 L418.45,433.63 C419.013926,434.392048 419.687952,435.066074 420.45,435.63 L419.6,437.8 C419.510117,438.045605 419.628961,438.318507 419.87,438.42 L423.39,439.8 C423.635746,439.895566 423.91257,439.775013 424.01,439.53 L424.01,439.53 L424.87,437.36 C425.700052,437.464577 426.539948,437.464577 427.37,437.36 L428.31,439.52 C428.358355,439.638407 428.452877,439.731994 428.571758,439.779169 C428.69064,439.826344 428.823613,439.823033 428.94,439.77 L432.4,438.27 C432.519097,438.219543 432.612791,438.123156 432.659853,438.002677 C432.706915,437.882198 432.703362,437.747824 432.65,437.63 L431.77,435.63 C432.630042,435.016683 433.380555,434.26279 433.99,433.4 L435.81,434.12 C436.055605,434.209883 436.328507,434.091039 436.43,433.85 L436.43,433.85 L437.81,430.33 C437.873137,430.216387 437.8875,430.082026 437.849806,429.957635 C437.812111,429.833243 437.725582,429.729456 437.61,429.67 Z M424.46,432 C422.088869,431.060289 420.927828,428.376874 421.86622,426.005221 C422.804613,423.633568 425.487382,422.471035 427.859556,423.408109 C430.23173,424.345183 431.395755,427.027305 430.46,429.4 C430.009968,430.541098 429.124619,431.456387 427.999113,431.944106 C426.873607,432.431826 425.600346,432.451935 424.46,432 Z" id="Path_1354" fill="#0E1C4C" fill-rule="nonzero"></path><path d="M700,137.53 L698.22,135.83 C698.915323,134.588044 699.389066,133.234492 699.62,131.83 L701.72,131.78 C702.050647,131.763982 702.310388,131.491035 702.31,131.16 L702.19,126.41 C702.179125,126.077023 701.903107,125.814361 701.57,125.82 L701.57,125.82 L699.1,125.88 C698.802215,125.00135 698.399292,124.161926 697.9,123.38 L699.67,121.52 C699.899895,121.283301 699.899895,120.906699 699.67,120.67 L699.67,120.67 L696.23,117.4 C695.992089,117.163555 695.607911,117.163555 695.37,117.4 L693.62,119.25 C692.585209,118.661451 691.470153,118.226883 690.31,117.96 L690.24,115.02 C690.23737,114.860863 690.171619,114.709291 690.057217,114.59864 C689.942815,114.487989 689.789136,114.427326 689.63,114.429915 L689.63,114.429915 L684.88,114.55 C684.547023,114.560875 684.284361,114.836893 684.29,115.17 L684.37,118.09 C683.214795,118.405674 682.112803,118.890955 681.1,119.53 L679.28,117.81 C679.169133,117.697626 679.017858,117.634367 678.86,117.634367 C678.702142,117.634367 678.550867,117.697626 678.44,117.81 L678.44,117.81 L675.17,121.25 C675.057027,121.362581 674.993527,121.515509 674.993527,121.675 C674.993527,121.834491 675.057027,121.987419 675.17,122.1 L676.97,123.82 C676.372752,124.861302 675.937755,125.987576 675.68,127.16 L672.78,127.24 C672.619085,127.242592 672.465958,127.30972 672.355015,127.426304 C672.244071,127.542888 672.184615,127.699155 672.19,127.86 L672.31,132.6 C672.309791,132.761817 672.376052,132.916618 672.493275,133.028169 C672.610498,133.139719 672.768392,133.198228 672.93,133.19 L675.83,133.12 C676.149216,134.275618 676.637852,135.377578 677.28,136.39 L675.28,138.51 C675.043555,138.747911 675.043555,139.132089 675.28,139.37 L678.72,142.64 C678.832581,142.752973 678.985509,142.816473 679.145,142.816473 C679.304491,142.816473 679.457419,142.752973 679.57,142.64 L679.57,142.64 L681.57,140.51 C682.489246,141.023369 683.470602,141.416584 684.49,141.68 L684.56,144.68 C684.56263,144.839137 684.628381,144.990709 684.742783,145.10136 C684.857185,145.212011 685.010864,145.272674 685.17,145.270085 L685.17,145.270085 L689.92,145.15 C690.080915,145.147408 690.234042,145.08028 690.344985,144.963696 C690.455929,144.847112 690.515385,144.690845 690.51,144.53 L690.51,144.53 L690.44,141.75 C691.728799,141.432462 692.957925,140.909071 694.08,140.2 L695.86,141.89 C695.972581,142.002973 696.125509,142.066473 696.285,142.066473 C696.444491,142.066473 696.597419,142.002973 696.71,141.89 L696.71,141.89 L699.98,138.45 C700.092973,138.337419 700.156473,138.184491 700.156473,138.025 C700.156473,137.865509 700.092973,137.712581 699.98,137.6 L700,137.53 Z M683.57,134.049998 C681.250404,131.840861 681.160861,128.169596 683.37,125.85 L683.37,125.85 C684.430866,124.736091 685.89078,124.089232 687.428579,124.051724 C688.966377,124.014217 690.456091,124.589134 691.57,125.65 L691.57,125.65 C692.685278,126.709516 693.333966,128.168693 693.373349,129.706506 C693.412732,131.244318 692.839584,132.734787 691.78,133.85 L691.78,133.85 C690.720484,134.965278 689.261307,135.613966 687.723494,135.653349 C686.185682,135.692732 684.695213,135.119584 683.58,134.06 L683.57,134.049998 Z" id="Path_1355" fill="#9AD9EA" fill-rule="nonzero"></path><path d="M258.84,32.64 C198.27,31.43 139.84,82.84 138.63,142.06 L138.52,246.28" id="Path_1356" stroke="#12AFD7" stroke-width="2" stroke-linecap="round" stroke-linejoin="round" stroke-dasharray="12"></path><path d="M159.39,142.37 C169.48,88.37 214.39,51.26 267.05,55.37" id="Path_1357" stroke="#12AFD7" stroke-width="2" stroke-linecap="round" stroke-linejoin="round"></path><line x1="380" y1="148.92" x2="382" y2="361.02" id="Line_40" stroke="#12AFD7" stroke-width="2" stroke-linecap="round" stroke-linejoin="round"></line><line x1="360.29" y1="171.11" x2="362.29" y2="351.68" id="Line_41" stroke="#12AFD7" stroke-width="2" stroke-linecap="round" stroke-linejoin="round"></line><path d="M562.39,108.87 C518.299744,110.893905 483.579696,147.203344 483.53,191.34 L483.53,303.5 L485.53,303.5 L485.53,191.34 C485.583584,148.308967 519.406711,112.897217 562.39,110.87 L562.39,108.87 Z" id="Path_1358" stroke="#12AFD7" fill="#0E1C4C" fill-rule="nonzero"></path><path d="M1213.9,181.78 C1169.79241,183.788396 1135.05045,220.10674 1135,264.26 L1135,376.42 L1137,376.42 L1137,264.26 C1137.04825,221.225098 1170.87285,185.807406 1213.86,183.78 L1213.9,181.78 Z" id="Path_1359" stroke="#12AFD7" fill="#0E1C4C" fill-rule="nonzero"></path><line x1="934.71" y1="118.07" x2="937.12" y2="373.27" id="Line_42" stroke="#12AFD7" stroke-width="2" stroke-linecap="round" stroke-linejoin="round" stroke-dasharray="12"></line><line x1="913.63" y1="259.24" x2="914.71" y2="373.27" id="Line_43" stroke="#0E1C4C" stroke-width="2" stroke-linecap="round" stroke-linejoin="round"></line><g id="Group_314" transform="translate(810.000000, 138.000000)" fill-rule="nonzero"><path d="M53,0.63 C38.8429655,0.986084811 25.4081226,6.95520295 15.6546846,17.2225721 C5.90124656,27.4899413 0.629276496,41.2133413 1,55.37 L1,55.37 C1.77409086,84.8339941 26.2859586,108.092287 55.75,107.32 L55.75,107.32 C85.209986,106.54587 108.466664,82.0401812 107.7,52.58 L107.7,52.58 C106.936636,23.1311828 82.4490243,-0.125332835 53,0.63 Z M100.4,52.77 C100.891372,71.371384 90.1276126,88.4366534 73.1290347,96.0064144 C56.1304568,103.576175 36.2456235,100.159255 22.7489983,87.3493354 C9.25237317,74.5394158 4.80266666,54.8599328 11.4752616,37.4895727 C18.1478565,20.1192126 34.6283133,8.47977609 53.23,8 L53.23,8 C65.4328114,7.67757878 77.2633826,12.2187368 86.1163107,20.6233917 C94.9692389,29.0280466 100.118467,40.6069058 100.43,52.81 L100.4,52.77 Z" id="Path_1360" fill="#00A1CF"></path><g id="Group_313" opacity="0.54" transform="translate(8.000000, 7.000000)"><circle id="Ellipse_42" fill="#BCDDF1" cx="46.43" cy="46.97" r="46.02"></circle><path d="M67.37,6 L6.6,70 C3.25408826,64.2453587 1.20630871,57.8289827 0.6,51.2 L48.29,1 C54.9399043,1.24598948 61.4540966,2.95306295 67.37,6 L67.37,6 Z" id="Path_1361" fill="#DDEEF8"></path><path d="M90.69,34.38 L36.17,91.84 C33.4290256,91.2168496 30.751103,90.3431774 28.17,89.23 L87.66,26.53 C88.9155702,29.045137 89.9301004,31.6735404 90.69,34.38 Z" id="Path_1362" fill="#DDEEF8"></path><path d="M86.14,23.71 L25.28,87.84 C24.4466125,87.4297812 23.6354818,86.9758151 22.85,86.48 L84.66,21.35 C85.18,22.13 85.67,22.9 86.14,23.71 Z" id="Path_1363" fill="#DDEEF8"></path></g><rect id="Rectangle_162" fill="#00A1CF" transform="translate(127.893726, 122.864266) rotate(-46.500000) translate(-127.893726, -122.864266) " x="120.558726" y="72.6792661" width="14.67" height="100.37"></rect><path d="M139.86,146.32 L154.12,132.69 C154.913935,131.959878 156.143816,131.990846 156.9,132.76 L156.9,132.76 C157.623661,133.552557 157.592768,134.775006 156.83,135.53 L142.57,149.17 C141.776065,149.900122 140.546184,149.869154 139.79,149.1 L139.79,149.1 C139.059878,148.306065 139.090846,147.076184 139.86,146.32 L139.86,146.32 Z" id="Rectangle_163" fill="#121D4C"></path><path d="M149.05,155.94 L163.31,142.31 C164.103935,141.579878 165.333816,141.610846 166.09,142.38 L166.09,142.38 C166.816366,143.169907 166.789888,144.392286 166.03,145.15 L151.77,158.79 C150.976065,159.520122 149.746184,159.489154 148.99,158.72 L148.99,158.72 C148.257179,157.928728 148.283721,156.698918 149.05,155.94 Z" id="Rectangle_164" fill="#121D4C"></path></g><line x1="1278.99" y1="285.39" x2="1278.99" y2="462.67" id="Line_44" stroke="#0E1C4C" stroke-width="2" stroke-linecap="round" stroke-linejoin="round" stroke-dasharray="12"></line><circle id="Ellipse_43" stroke="#00A1CF" stroke-width="2" cx="451.75" cy="422.01" r="3.99"></circle><ellipse id="Ellipse_44" fill="#A9C9E0" fill-rule="nonzero" cx="188.78" cy="239.21" rx="4.06" ry="3.94"></ellipse><path d="M178.35,230.71 L177.26,225.52 C177.18673,225.151175 177.263819,224.768362 177.474134,224.456645 C177.68445,224.144927 178.010566,223.930133 178.38,223.86 L178.38,223.86 L183.74,222.86 C184.108944,222.794266 184.436542,222.584362 184.650441,222.276648 C184.864339,221.968934 184.94694,221.588727 184.88,221.22 L184.88,221.22 L184.88,221.22 C184.700819,220.446 183.939086,219.954417 183.16,220.11 L177.8,221.17 C177.022982,221.331798 176.259036,220.843228 176.08,220.07 L175,214.79 C174.825718,214.013428 174.05806,213.522484 173.28,213.69 L173.28,213.69 C172.909219,213.753395 172.579141,213.962318 172.363174,214.270305 C172.147208,214.578292 172.06326,214.959807 172.13,215.33 L172.13,215.33 L173.25,220.67 C173.384653,221.357462 172.937223,222.024132 172.25,222.16 L172.25,222.16 L166.74,223.25 C165.970729,223.387141 165.456809,224.120036 165.59,224.89 L165.59,224.89 L165.59,224.89 C165.769036,225.663228 166.532982,226.151798 167.31,225.99 L172.67,224.93 C173.445983,224.773779 174.206335,225.260051 174.39,226.03 L175.47,231.22 C175.64897,231.997962 176.419584,232.487948 177.2,232.32 L177.2,232.32 C177.570228,232.256781 177.899529,232.047453 178.113903,231.739054 C178.328277,231.430656 178.409745,231.049055 178.34,230.68 L178.35,230.71 Z" id="Path_1365" fill="#0E1C4C" fill-rule="nonzero"></path><ellipse id="Ellipse_45" fill="#A9C9E0" fill-rule="nonzero" transform="translate(901.796175, 137.762465) rotate(-15.060000) translate(-901.796175, -137.762465) " cx="901.796175" cy="137.762465" rx="4.06" ry="3.94"></ellipse><path d="M889.5,132.2 L887.1,127.47 C886.761572,126.768358 887.051595,125.925059 887.75,125.58 L887.75,125.58 L892.65,123.17 C892.990159,123.011624 893.253162,122.724198 893.380788,122.371349 C893.508414,122.0185 893.490136,121.629334 893.33,121.29 L893.33,121.29 L893.33,121.29 C893.149398,120.940187 892.835181,120.678134 892.458623,120.563284 C892.082066,120.448434 891.675085,120.490522 891.33,120.68 L886.43,123.09 C886.083682,123.278749 885.675732,123.319352 885.299004,123.202566 C884.922277,123.085781 884.608827,122.821544 884.43,122.47 L882.03,117.74 C881.661532,117.031737 880.789843,116.754584 880.08,117.12 L880.08,117.12 C879.739841,117.278376 879.476838,117.565802 879.349212,117.918651 C879.221586,118.2715 879.239864,118.660666 879.4,119 L879.4,119 L881.87,123.87 C882.017455,124.172101 882.038075,124.520601 881.927273,124.837983 C881.816471,125.155365 881.583436,125.41531 881.28,125.56 L881.28,125.56 L876.28,128.04 C875.941613,128.200198 875.680831,128.488398 875.555148,128.841063 C875.429464,129.193728 875.449198,129.5819 875.61,129.92 L875.61,129.92 L875.61,129.92 C875.978468,130.628263 876.850157,130.905416 877.56,130.54 L882.46,128.13 C882.806872,127.944075 883.213813,127.905005 883.589723,128.021537 C883.965634,128.13807 884.279119,128.400471 884.46,128.75 L886.86,133.48 C887.036714,133.833599 887.350131,134.099722 887.727702,134.216769 C888.105272,134.333816 888.514263,134.291639 888.86,134.1 L888.86,134.1 C889.198387,133.939802 889.459169,133.651602 889.584852,133.298937 C889.710536,132.946272 889.690802,132.5581 889.53,132.22 L889.5,132.2 Z" id="Path_1366" fill="#0E1C4C" fill-rule="nonzero"></path><g id="Group_323" transform="translate(1258.000000, 412.000000)" fill-rule="nonzero"><rect id="Rectangle_165" fill="#A9C9E0" x="15.47" y="7" width="73.41" height="87.21"></rect><g id="Group_315" transform="translate(8.000000, 0.000000)"><polygon id="Path_1367" fill="#CDE4EF" points="44.67 87.49 0.06 87.49 0.06 0.28 73.46 0.28 73.46 58.68"></polygon><polygon id="Path_1368" fill="#E6F6FE" points="63.41 87.49 73.47 77.43 63.41 77.43"></polygon></g><g id="Group_322" transform="translate(0.000000, 16.000000)" fill="#00A1CF"><g id="Group_320" transform="translate(12.000000, 11.000000)"><g id="Group_316" transform="translate(0.000000, 19.000000)"><path d="M0.59,3.38 L6.39,1.38 C8.65432787,0.506159744 11.1735753,0.570940391 13.39,1.56 C15.5155129,2.51695758 17.1310492,4.33625522 17.83,6.56 C18.7779263,8.87905181 18.7163197,11.4882707 17.66,13.76 C16.5137918,15.948805 14.5294108,17.5796053 12.16,18.28 L6.42,20.28 L0.59,3.38 Z M9.29,15.7 L11.04,15.09 C12.4249658,14.7029603 13.5607234,13.7105507 14.13,12.39 C14.6304515,10.9068008 14.5699712,9.29161954 13.96,7.85 C13.5674398,6.5066753 12.6622877,5.37164326 11.44,4.69 C10.1575599,4.07465117 8.67373354,4.03464605 7.36,4.58 L5.64,5.18 L9.29,15.7 Z" id="Path_1369"></path></g><g id="Group_317" transform="translate(19.000000, 13.000000)"><path d="M0.94,12 C0.0496667684,9.74751216 0.0711863428,7.23689515 1,5 C3.23464613,0.657982874 8.48002275,-1.17108391 12.93,0.84 C17.1661772,3.462862 18.9786053,8.69969332 17.27,13.38 C15.0282784,17.7141274 9.78761689,19.5371571 5.34,17.53 C3.20282858,16.337427 1.6218937,14.3504793 0.94,12 Z M4.85,6.42 C4.4477965,7.78380188 4.52185928,9.24389674 5.06,10.56 C5.45108334,11.9301208 6.30214749,13.1237294 7.47,13.94 C8.51291714,14.5596454 9.77630548,14.6869047 10.9218499,14.2876998 C12.0673944,13.8884949 12.9780654,13.0036089 13.41,11.87 C14.0874977,9.06851789 13.0673993,6.12938355 10.8,4.35 C9.75176051,3.71156088 8.47345597,3.57371481 7.31320543,3.97400125 C6.15295489,4.37428768 5.23158088,5.27102285 4.8,6.42 L4.85,6.42 Z" id="Path_1370"></path></g><g id="Group_318" transform="translate(36.000000, 5.000000)"><path d="M5.9,21.9 L0,5.06 L4.23,3.59 L10.57,9.2 C11.46,9.99 12.26,10.74 12.97,11.46 C13.4689957,11.9490631 13.9429346,12.4630531 14.39,13 L14.78,13.48 C14.0115025,11.8558923 13.3435761,10.1860762 12.78,8.48 L10.36,1.48 L14.21,0.14 L20.06,16.98 L15.83,18.45 L9.39,12.88 C8.54,12.16 7.77,11.44 7.05,10.71 C6.33,9.98 5.84,9.43 5.54,9.06 L5.13,8.51 C5.9945172,10.145575 6.72685151,11.8476671 7.32,13.6 L9.74,20.6 L5.9,21.9 Z" id="Path_1371"></path></g><g id="Group_319" transform="translate(53.000000, 0.000000)"><polygon id="Path_1372" points="9.12 16.43 15.72 14.13 16.79 17.21 6.31 20.85 0.46 4 10.83 0.4 11.9 3.47 5.4 5.73 6.73 9.55 12.53 7.55 13.59 10.55 7.79 12.55"></polygon></g></g><g id="Group_321"><path d="M88.58,35.4 L17.58,60.08 C13.297383,61.5624149 8.62289066,59.2989765 7.13,55.02 L0.71,36.53 C-0.771815701,32.2500187 1.49234326,27.5785129 5.77,26.09 L76.77,1.41 C81.0499813,-0.071815701 85.7214871,2.19234326 87.21,6.47 L93.64,24.95 C95.1224149,29.232617 92.8589765,33.9071093 88.58,35.4 Z M6.77,29 C4.11549256,29.9303983 2.71203959,32.8311658 3.63,35.49 L10.06,53.98 C10.5024365,55.2583355 11.4355327,56.3079736 12.6532333,56.897123 C13.8709338,57.4862724 15.2730669,57.5664679 16.55,57.12 L16.55,57.12 L87.55,32.44 C90.2084661,31.5140416 91.6138986,28.6091826 90.69,25.95 L84.27,7.47 C83.343724,4.81150804 80.4416968,3.40297404 77.78,4.32 L6.77,29 Z" id="Path_1373"></path></g></g></g><path d="M1235.25,316.5 L1230.98,314.82 C1231.32113,312.18444 1231.18906,309.509146 1230.59,306.92 L1234.16,305.36 C1234.73017,305.112828 1234.99375,304.45164 1234.75,303.88 L1231.23,295.8 C1231.1115,295.526099 1230.88859,295.310817 1230.61073,295.201926 C1230.33287,295.093035 1230.02304,295.099541 1229.75,295.22 L1229.75,295.22 L1225.55,297.04 C1224.42032,295.738069 1223.14155,294.573415 1221.74,293.57 L1223.48,289.14 C1223.59129,288.862949 1223.58735,288.552931 1223.46906,288.278798 C1223.35077,288.004664 1223.12792,287.789107 1222.85,287.68 L1222.85,287.68 L1214.64,284.45 C1214.06014,284.225224 1213.40763,284.511252 1213.18,285.09 L1211.45,289.49 C1209.26376,289.198184 1207.04636,289.231883 1204.87,289.59 L1202.68,284.59 C1202.56357,284.316802 1202.34251,284.101654 1202.06626,283.992657 C1201.79002,283.883661 1201.48161,283.889907 1201.21,284.01 L1201.21,284.01 L1193.13,287.53 C1192.8568,287.646433 1192.64165,287.867486 1192.53266,288.143736 C1192.42366,288.419985 1192.42991,288.728391 1192.55,289 L1192.55,289 L1194.72,294 C1192.95178,295.351243 1191.39177,296.955051 1190.09,298.76 L1185.77,297.06 C1185.19014,296.835224 1184.53763,297.121252 1184.31,297.7 L1184.31,297.7 L1181.09,305.9 C1180.97871,306.177051 1180.98265,306.487069 1181.10094,306.761202 C1181.21923,307.035336 1181.44208,307.250893 1181.72,307.36 L1181.72,307.36 L1186,309 C1185.71145,311.213472 1185.74851,313.457264 1186.11,315.66 L1181.18,317.81 C1180.9061,317.928497 1180.69082,318.151408 1180.58193,318.429268 C1180.47303,318.707128 1180.47954,319.016956 1180.6,319.29 L1184.12,327.37 C1184.36717,327.94017 1185.02836,328.203751 1185.6,327.96 L1190.53,325.81 C1191.89601,327.573072 1193.51322,329.126267 1195.33,330.42 L1193.33,335.47 C1193.21871,335.747051 1193.22265,336.057069 1193.34094,336.331202 C1193.45923,336.605336 1193.68208,336.820893 1193.96,336.93 L1202.16,340.16 C1202.73986,340.384776 1203.39237,340.098748 1203.62,339.52 L1203.62,339.52 L1205.62,334.45 C1207.55529,334.700033 1209.51471,334.700033 1211.45,334.45 L1213.65,339.51 C1213.7685,339.783901 1213.99141,339.999183 1214.26927,340.108074 C1214.54713,340.216965 1214.85696,340.210459 1215.13,340.09 L1223.22,336.58 C1223.4939,336.461503 1223.70918,336.238592 1223.81807,335.960732 C1223.92697,335.682872 1223.92046,335.373044 1223.8,335.1 L1221.73,330.35 C1223.73616,328.912237 1225.48996,327.151679 1226.92,325.14 L1231.17,326.81 C1231.74435,327.035186 1232.39266,326.753506 1232.62,326.18 L1235.85,317.97 C1235.96894,317.695874 1235.97234,317.385369 1235.85941,317.108709 C1235.74649,316.832049 1235.52679,316.612603 1235.25,316.5 L1235.25,316.5 Z M1204.54,322 C1199.00722,319.812354 1196.29284,313.555945 1198.47516,308.021061 C1200.65748,302.486176 1206.91127,299.765776 1212.44825,301.942765 C1217.98524,304.119753 1220.71166,310.370923 1218.54,315.91 L1218.54,315.91 C1217.49057,318.573167 1215.42503,320.709605 1212.79878,321.848272 C1210.17252,322.98694 1207.20123,323.034332 1204.54,321.98 L1204.54,322 Z" id="Path_1375" fill="#9AD9EA" fill-rule="nonzero"></path><path d="M1197.37,275.53 L1195.37,274.73 C1195.53045,273.469127 1195.46953,272.189922 1195.19,270.95 L1196.89,270.21 C1197.02052,270.154969 1197.12358,270.049985 1197.17618,269.918472 C1197.22879,269.786959 1197.22656,269.639861 1197.17,269.51 L1197.17,269.51 L1195.49,265.65 C1195.43509,265.51693 1195.32842,265.411919 1195.19451,265.359107 C1195.06059,265.306296 1194.91096,265.310228 1194.78,265.37 L1192.78,266.24 C1192.23978,265.617943 1191.629,265.060863 1190.96,264.58 L1191.79,262.46 C1191.84228,262.328762 1191.84,262.182084 1191.78368,262.052531 C1191.72735,261.922979 1191.62163,261.821275 1191.49,261.77 L1191.49,261.77 L1187.58,260.23 C1187.44761,260.174538 1187.29838,260.175148 1187.16644,260.231692 C1187.0345,260.288237 1186.93114,260.395878 1186.88,260.53 L1186.05,262.63 C1185.00907,262.475002 1183.95093,262.475002 1182.91,262.63 L1181.91,260.23 C1181.78733,259.960622 1181.47067,259.840201 1181.2,259.96 L1181.2,259.96 L1177.34,261.64 C1177.20948,261.695031 1177.10642,261.800015 1177.05382,261.931528 C1177.00121,262.063041 1177.00344,262.210139 1177.06,262.34 L1177.06,262.34 L1178.06,264.72 C1177.21585,265.364026 1176.47119,266.128905 1175.85,266.99 L1173.79,266.18 C1173.65761,266.124538 1173.50838,266.125148 1173.37644,266.181692 C1173.2445,266.238237 1173.14114,266.345878 1173.09,266.48 L1173.09,266.48 L1171.55,270.4 C1171.43927,270.673376 1171.56839,270.985022 1171.84,271.1 L1171.84,271.1 L1173.84,271.91 C1173.70168,272.966777 1173.71852,274.038095 1173.89,275.09 L1171.54,276.09 C1171.26676,276.208876 1171.14145,276.526616 1171.26,276.8 L1171.26,276.8 L1172.94,280.66 C1173.05888,280.933242 1173.37662,281.058548 1173.65,280.94 L1173.65,280.94 L1176.01,279.94 C1176.65876,280.783958 1177.43072,281.52558 1178.3,282.14 L1177.3,284.55 C1177.18927,284.823376 1177.31839,285.135022 1177.59,285.25 L1177.59,285.25 L1181.51,286.79 C1181.78062,286.900007 1182.08922,286.770303 1182.2,286.5 L1182.2,286.5 L1183.2,284.08 C1184.12278,284.199988 1185.05722,284.199988 1185.98,284.08 L1187.04,286.5 C1187.09473,286.630596 1187.20035,286.733226 1187.33246,286.784183 C1187.46457,286.835141 1187.61175,286.830019 1187.74,286.77 L1187.74,286.77 L1191.6,285.09 C1191.73052,285.034969 1191.83358,284.929985 1191.88618,284.798472 C1191.93879,284.666959 1191.93656,284.519861 1191.88,284.39 L1191.88,284.39 L1190.88,282.12 C1191.83873,281.43292 1192.67678,280.591488 1193.36,279.63 L1195.36,280.43 C1195.49124,280.482281 1195.63792,280.480005 1195.76747,280.423678 C1195.89702,280.367351 1195.99873,280.261634 1196.05,280.13 L1196.05,280.13 L1197.6,276.22 C1197.70957,275.943869 1197.57553,275.631088 1197.3,275.52 L1197.37,275.53 Z M1182.71,278.15 C1180.07356,277.104161 1178.78255,274.120433 1179.82518,271.482723 C1180.8678,268.845012 1183.84995,267.550365 1186.48893,268.589774 C1189.12791,269.629184 1190.42619,272.609756 1189.39,275.25 C1188.34592,277.89519 1185.35544,279.193453 1182.71,278.15 L1182.71,278.15 Z" id="Path_1376" fill="#121D4C" fill-rule="nonzero"></path></g></svg> 